# xmcd CD database file
#
# Track frame offsets:
#	150
#	15970
#	32389
#	48324
#	62697
#	79125
#	93814
#	110423
#	125008
#	140219
#	154558
#	171158
#	185952
#	202532
#	216197
#	230573
#
# Disc length: 3273 seconds
#
# Revision: 2
# Processed by: cddbd v1.5.2PL0 Copyright (c) Steve Scherf et al.
# Submitted via: CDex 1.50
#
DISCID=d00cc710
DTITLE=Peter Kraus und die SWR Big Band - Nimm dir Zeit [Deluxe Edition]
DYEAR=1900
DGENRE=Schlager
TTITLE0=Nimm Dir Zeit
TTITLE1=Ich Bin Doch Nur Ein Mann
TTITLE2=Verzeih Mir
TTITLE3=Ich Werd Noch Verrückt Mit Dir
TTITLE4=Du Bist Vergeben
TTITLE5=Eine Frau Wie Ein Vulkan
TTITLE6=Ein Frauentyp
TTITLE7=Ich Habe Mich So An Dich Gewöhnt
TTITLE8=Du Kriegst Die Scheidung
TTITLE9=Bussi Bussi
TTITLE10=Nadine, Du Bist Das
TTITLE11=Sie Tanzt Immer Ohne Partner
TTITLE12=Der Beste Teil Von Mir
TTITLE13=Hula Baby (Kitty Kat)
TTITLE14=Sugar Baby
TTITLE15=Sweety
EXTD=
EXTT0=
EXTT1=
EXTT2=
EXTT3=
EXTT4=
EXTT5=
EXTT6=
EXTT7=
EXTT8=
EXTT9=
EXTT10=
EXTT11=
EXTT12=
EXTT13=
EXTT14=
EXTT15=
PLAYORDER=
